<svg width="32" height="33" viewBox="0 0 32 33" fill="none" xmlns="http://www.w3.org/2000/svg">
<g clip-path="url(#clip0_110_701)">
<path d="M20.5333 4.2002C20.2161 4.76831 19.9334 5.35503 19.6868 5.95715C17.2634 5.5739 14.7948 5.5739 12.3715 5.95715C12.1248 5.35503 11.8421 4.76831 11.5249 4.2002C9.24215 4.59024 7.02298 5.28877 4.92836 6.2766C1.18275 11.6821 -0.515908 18.2446 0.136662 24.7885C2.57761 26.6235 5.31722 28.023 8.23463 28.9254C8.89894 28.0478 9.49182 27.1185 10.0076 26.1462C9.05573 25.7952 8.14087 25.3512 7.27629 24.8205C7.51342 24.6627 7.73773 24.4865 7.94713 24.2934C10.4683 25.5078 13.2307 26.1384 16.0291 26.1384C18.8275 26.1384 21.59 25.5078 24.1111 24.2934C24.3347 24.4851 24.5584 24.6608 24.782 24.8205C23.9127 25.347 22.9987 25.796 22.0507 26.1621C22.545 27.1565 23.1221 28.1075 23.7757 29.0052C26.6895 28.106 29.4243 26.7062 31.8577 24.8684C32.5259 18.3233 30.8259 11.7554 27.066 6.35646C24.9949 5.34819 22.7977 4.62294 20.5333 4.2002ZM10.7263 21.051C9.92703 20.9936 9.18106 20.6288 8.64499 20.0332C8.10893 19.4376 7.82446 18.6574 7.8513 17.8565C7.82041 17.0546 8.10348 16.2722 8.64035 15.6757C9.17722 15.0792 9.92556 14.7155 10.7263 14.6621C11.5271 14.7155 12.2754 15.0792 12.8123 15.6757C13.3492 16.2722 13.6322 17.0546 13.6013 17.8565C13.6322 18.6585 13.3492 19.4409 12.8123 20.0374C12.2754 20.6339 11.5271 20.9975 10.7263 21.051ZM21.3319 21.051C20.5327 20.9936 19.7867 20.6288 19.2506 20.0332C18.7146 19.4376 18.4301 18.6574 18.4569 17.8565C18.426 17.0546 18.7091 16.2722 19.246 15.6757C19.7828 15.0792 20.5312 14.7155 21.3319 14.6621C22.1342 14.7115 22.8849 15.074 23.4226 15.6714C23.9603 16.2689 24.242 17.0535 24.207 17.8565C24.242 18.6595 23.9603 19.4442 23.4226 20.0416C22.8849 20.6391 22.1342 21.0015 21.3319 21.051Z" fill="white"/>
</g>
<defs>
<clipPath id="clip0_110_701">
<rect width="32" height="32" fill="white" transform="translate(0 0.200195)"/>
</clipPath>
</defs>
</svg>
