<svg width="32" height="33" viewBox="0 0 32 33" fill="none" xmlns="http://www.w3.org/2000/svg">
<g clip-path="url(#clip0_110_695)">
<path d="M15.9253 0.200239C11.6948 0.219981 7.64431 1.9144 4.65986 4.91285C1.67541 7.91129 -4.60654e-05 11.9697 9.49913e-10 16.2002C9.49921e-10 20.4437 1.68571 24.5134 4.68629 27.5139C7.68687 30.5145 11.7565 32.2002 16 32.2002C20.2435 32.2002 24.3131 30.5145 27.3137 27.5139C30.3143 24.5134 32 20.4437 32 16.2002C32 11.9568 30.3143 7.88711 27.3137 4.88653C24.3131 1.88595 20.2435 0.200239 16 0.200239C15.9751 0.200181 15.9502 0.200181 15.9253 0.200239V0.200239ZM22.5413 9.83224C22.6747 9.82957 22.9693 9.86291 23.1613 10.0189C23.2889 10.1297 23.3703 10.2843 23.3893 10.4522C23.4107 10.5762 23.4373 10.8602 23.416 11.0816C23.176 13.6122 22.1333 19.7509 21.6027 22.5842C21.3787 23.7842 20.9373 24.1856 20.5093 24.2242C19.5813 24.3109 18.876 23.6109 17.976 23.0216C16.568 22.0976 15.772 21.5229 14.4053 20.6216C12.8253 19.5816 13.8493 19.0082 14.7493 18.0749C14.9853 17.8296 19.0787 14.1056 19.1587 13.7682C19.168 13.7256 19.1773 13.5682 19.084 13.4856C18.9907 13.4029 18.852 13.4309 18.752 13.4536C18.6107 13.4856 16.3613 14.9736 12.004 17.9136C11.364 18.3536 10.7867 18.5669 10.268 18.5536C9.69733 18.5429 8.59867 18.2322 7.78133 17.9669C6.77867 17.6402 5.98267 17.4682 6.052 16.9149C6.088 16.6269 6.48533 16.3322 7.24267 16.0309C11.9067 13.9989 15.016 12.6589 16.5733 12.0122C21.016 10.1642 21.94 9.84291 22.5413 9.83224V9.83224Z" fill="white"/>
</g>
<defs>
<clipPath id="clip0_110_695">
<rect width="32" height="32" fill="white" transform="translate(0 0.200195)"/>
</clipPath>
</defs>
</svg>
