<svg width="32" height="33" viewBox="0 0 32 33" fill="none" xmlns="http://www.w3.org/2000/svg">
<path d="M29.9466 8.20011C28.9199 8.66678 27.8132 8.97345 26.6666 9.12011C27.8399 8.41345 28.7466 7.29345 29.1732 5.94678C28.0666 6.61345 26.8399 7.08011 25.5466 7.34678C24.4932 6.20011 23.0132 5.53345 21.3332 5.53345C18.1999 5.53345 15.6399 8.09345 15.6399 11.2534C15.6399 11.7068 15.6932 12.1468 15.7866 12.5601C11.0399 12.3201 6.81322 10.0401 3.99989 6.58678C3.50656 7.42678 3.22656 8.41345 3.22656 9.45345C3.22656 11.4401 4.22656 13.2001 5.77322 14.2001C4.82656 14.2001 3.94656 13.9334 3.17322 13.5334V13.5734C3.17322 16.3468 5.14656 18.6668 7.75989 19.1868C6.92086 19.4164 6.04002 19.4483 5.18656 19.2801C5.5487 20.4168 6.25794 21.4113 7.21458 22.124C8.17122 22.8367 9.32715 23.2317 10.5199 23.2534C8.49806 24.854 5.99188 25.7192 3.41322 25.7068C2.95989 25.7068 2.50656 25.6801 2.05322 25.6268C4.58656 27.2534 7.59989 28.2001 10.8266 28.2001C21.3332 28.2001 27.1066 19.4801 27.1066 11.9201C27.1066 11.6668 27.1066 11.4268 27.0932 11.1734C28.2132 10.3734 29.1732 9.36011 29.9466 8.20011V8.20011Z" fill="white"/>
</svg>
