<svg width="32" height="33" viewBox="0 0 32 33" fill="none" xmlns="http://www.w3.org/2000/svg">
<g clip-path="url(#clip0_110_697)">
<path d="M16.102 4.19824H16.28C17.924 4.20424 26.254 4.26424 28.5 4.86824C29.179 5.05258 29.7977 5.41189 30.2943 5.91026C30.7909 6.40863 31.1481 7.02861 31.33 7.70824C31.532 8.46824 31.674 9.47424 31.77 10.5122L31.79 10.7202L31.834 11.2402L31.85 11.4482C31.98 13.2762 31.996 14.9882 31.998 15.3622V15.5122C31.996 15.9002 31.978 17.7282 31.834 19.6322L31.818 19.8422L31.8 20.0502C31.7 21.1942 31.552 22.3302 31.33 23.1662C31.1486 23.8461 30.7917 24.4664 30.295 24.9649C29.7983 25.4633 29.1793 25.8225 28.5 26.0062C26.18 26.6302 17.362 26.6742 16.14 26.6762H15.856C15.238 26.6762 12.682 26.6642 10.002 26.5722L9.662 26.5602L9.488 26.5522L9.146 26.5382L8.804 26.5242C6.584 26.4262 4.47 26.2682 3.496 26.0042C2.81698 25.8206 2.19813 25.4618 1.70145 24.9637C1.20477 24.4656 0.847694 23.8458 0.666 23.1662C0.444 22.3322 0.296 21.1942 0.196 20.0502L0.18 19.8402L0.164 19.6322C0.0652952 18.277 0.0105997 16.919 0 15.5602L0 15.3142C0.004 14.8842 0.02 13.3982 0.128 11.7582L0.142 11.5522L0.148 11.4482L0.164 11.2402L0.208 10.7202L0.228 10.5122C0.324 9.47424 0.466 8.46624 0.668 7.70824C0.849387 7.02834 1.20632 6.40806 1.70303 5.90961C2.19973 5.41115 2.81874 5.05203 3.498 4.86824C4.472 4.60824 6.586 4.44824 8.806 4.34824L9.146 4.33424L9.49 4.32224L9.662 4.31624L10.004 4.30224C11.9074 4.24099 13.8116 4.20699 15.716 4.20024H16.102V4.19824ZM12.8 10.6182V20.2542L21.114 15.4382L12.8 10.6182Z" fill="white"/>
</g>
<defs>
<clipPath id="clip0_110_697">
<rect width="32" height="32" fill="white" transform="translate(0 0.200195)"/>
</clipPath>
</defs>
</svg>
